<svg viewBox="0 0 259.2 87.84" xmlns="http://www.w3.org/2000/svg" xmlns:xlink="http://www.w3.org/1999/xlink" id="Layer_1" overflow="hidden"><defs></defs><path d="M6.2 87.15 1.76 87.15C1.18006 87.2299 0.645132 86.8246 0.565205 86.2446 0.554032 86.1636 0.552285 86.0815 0.56 86L0.56 42.46C0.476727 41.8805 0.878974 41.3433 1.45844 41.26 1.55845 41.2456 1.65999 41.2456 1.76 41.26L6.2 41.26C6.77947 41.1767 7.31673 41.579 7.4 42.1584 7.41437 42.2584 7.41437 42.36 7.4 42.46L7.4 45 7.68 45C8.80667 42.5067 11.18 41.26 14.8 41.26L18.4 41.26C21.7867 41.26 24.3833 42.2 26.19 44.08 27.9967 45.96 28.9 48.6633 28.9 52.19L28.9 66.29C28.9 69.77 27.9967 72.46 26.19 74.36 24.3833 76.26 21.7867 77.21 18.4 77.21L14.8 77.21C11.18 77.21 8.80667 75.9633 7.68 73.47L7.4 73.47 7.4 86C7.45519 86.5828 7.02746 87.1 6.44465 87.1552 6.36317 87.1629 6.28107 87.1612 6.2 87.15ZM13.2 71.22 16.94 71.22C20.3133 71.22 22 69.48 22 66L22 52.47C22 48.99 20.3067 47.25 16.92 47.25L13.18 47.25C9.32667 47.25 7.4 49.25 7.4 53.25L7.4 65.25C7.4 69.23 9.32667 71.22 13.18 71.22Z" fill="#172C51"/><path d="M41.31 77.21 36.87 77.21C36.2905 77.2933 35.7533 76.891 35.67 76.3116 35.6556 76.2115 35.6556 76.11 35.67 76.01L35.67 42.46C35.5867 41.8805 35.989 41.3433 36.5684 41.26 36.6684 41.2456 36.77 41.2456 36.87 41.26L41.31 41.26C41.8895 41.1767 42.4267 41.579 42.51 42.1584 42.5244 42.2584 42.5244 42.36 42.51 42.46L42.51 45.14 42.79 45.14C43.3197 43.9013 44.2833 42.8985 45.5 42.32 46.8892 41.5999 48.4354 41.2357 50 41.26L52.61 41.26C53.1895 41.1767 53.7267 41.579 53.81 42.1584 53.8244 42.2584 53.8244 42.36 53.81 42.46L53.81 46.13C53.81 47.0233 53.41 47.4 52.61 47.26L48.36 47.26C44.46 47.26 42.51 49.4 42.51 53.68L42.51 76C42.5989 76.5786 42.2019 77.1198 41.6233 77.2087 41.5195 77.2247 41.4139 77.2251 41.31 77.21Z" fill="#172C51"/><path d="M74.3 77.21 68.1 77.21C64.62 77.21 61.93 76.2467 60.03 74.32 58.13 72.3933 57.1767 69.7267 57.17 66.32L57.17 52.19C57.17 48.71 58.1233 46.02 60.03 44.12 61.9367 42.22 64.6267 41.2667 68.1 41.26L74.3 41.26C77.7333 41.26 80.4233 42.2133 82.37 44.12 84.3167 46.0267 85.2933 48.7167 85.3 52.19L85.3 66.29C85.3 69.7233 84.3233 72.39 82.37 74.29 80.4167 76.19 77.7267 77.1633 74.3 77.21ZM69.08 71.21 73.38 71.21C76.7667 71.21 78.46 69.4933 78.46 66.06L78.46 52.4C78.46 48.9667 76.7667 47.25 73.38 47.25L69.08 47.25C67.6735 47.1181 66.2736 47.5619 65.2 48.48 64.3051 49.5807 63.8746 50.987 64 52.4L64 66.07C63.8747 67.4877 64.309 68.8982 65.21 70 66.2827 70.9119 67.6783 71.3519 69.08 71.22Z" fill="#172C51"/><path d="M113.85 72.42 113.85 76.09C113.85 76.8433 113.427 77.22 112.58 77.22L102.22 77.22C98.74 77.22 96.05 76.2567 94.15 74.33 92.25 72.4033 91.2967 69.7367 91.29 66.33L91.29 52.19C91.29 48.71 92.2433 46.02 94.15 44.12 96.0567 42.22 98.7467 41.2667 102.22 41.26L112.58 41.26C113.427 41.26 113.85 41.66 113.85 42.46L113.85 46.13C113.85 46.8833 113.427 47.26 112.58 47.26L103.2 47.26C99.8133 47.26 98.12 49 98.12 52.48L98.12 66C98.12 69.48 99.8133 71.22 103.2 71.22L112.58 71.22C113.427 71.22 113.85 71.62 113.85 72.42Z" fill="#172C51"/><path d="M144.59 77.21 129.36 77.21C125.88 77.21 123.19 76.2467 121.29 74.32 119.39 72.3933 118.437 69.7267 118.43 66.32L118.43 52.19C118.43 48.71 119.383 46.02 121.29 44.12 123.197 42.22 125.887 41.2667 129.36 41.26L135.14 41.26C138.62 41.26 141.323 42.2133 143.25 44.12 145.177 46.0267 146.14 48.7167 146.14 52.19L146.14 61.19C146.229 61.8021 145.806 62.3707 145.193 62.46 145.086 62.4757 144.977 62.4757 144.87 62.46L126 62.46C125.48 62.46 125.22 62.6933 125.22 63.16L125.22 66.16C125.22 69.5933 126.937 71.31 130.37 71.31L144.61 71.31C145.222 71.2207 145.791 71.6444 145.88 72.2565 145.896 72.3638 145.896 72.4727 145.88 72.58L145.88 76.11C145.867 76.8433 145.437 77.21 144.59 77.21ZM126 57.61 138.6 57.61C138.938 57.664 139.256 57.4336 139.31 57.0955 139.32 57.0308 139.32 56.9648 139.31 56.9L139.31 52.4C139.432 50.9904 139.001 49.5886 138.11 48.49 137.036 47.5729 135.636 47.1293 134.23 47.26L130.35 47.26C128.944 47.1281 127.544 47.5719 126.47 48.49 125.578 49.5881 125.147 50.9903 125.27 52.4L125.27 56.91C125.22 57.2487 125.453 57.5641 125.792 57.6144 125.861 57.6246 125.931 57.6231 126 57.61Z" fill="#172C51"/><path d="M165.32 77.21 152.32 77.21C151.741 77.2933 151.203 76.891 151.12 76.3116 151.106 76.2115 151.106 76.11 151.12 76.01L151.12 72.56C151.12 71.8067 151.52 71.43 152.32 71.43L164.16 71.43C167.213 71.43 168.74 70.3733 168.74 68.26L168.74 67.41C168.74 65.53 167.637 64.0967 165.43 63.11L157.75 59.44C155.75 58.6037 153.965 57.325 152.53 55.7 151.39 54.1527 150.818 52.2598 150.91 50.34 150.91 44.28 154.27 41.25 160.99 41.25L172.69 41.25C173.443 41.25 173.82 41.65 173.82 42.45L173.82 45.9C173.82 46.7 173.443 47.1 172.69 47.1L162.43 47.1C161.301 47.0317 160.177 47.2885 159.19 47.84 158.492 48.2361 158.06 48.9771 158.06 49.78L158.06 50.56C158.06 52.0667 159.26 53.3833 161.66 54.51L169.41 58.46C171.419 59.218 173.159 60.5542 174.41 62.3 175.398 64.0329 175.886 66.0061 175.82 68 175.82 74.14 172.32 77.21 165.32 77.21Z" fill="#172C51"/><path d="M194.57 77.21 181.57 77.21C180.991 77.2933 180.453 76.891 180.37 76.3116 180.356 76.2115 180.356 76.11 180.37 76.01L180.37 72.56C180.37 71.8067 180.77 71.43 181.57 71.43L193.41 71.43C196.463 71.43 197.99 70.3733 197.99 68.26L197.99 67.41C197.99 65.53 196.887 64.0967 194.68 63.11L187 59.45C185 58.6137 183.215 57.335 181.78 55.71 180.64 54.1627 180.068 52.2698 180.16 50.35 180.16 44.29 183.52 41.26 190.24 41.26L202 41.26C202.753 41.26 203.13 41.66 203.13 42.46L203.13 45.91C203.13 46.71 202.753 47.11 202 47.11L191.68 47.11C190.551 47.0417 189.427 47.2985 188.44 47.85 187.742 48.2461 187.31 48.9871 187.31 49.79L187.31 50.57C187.31 52.0767 188.51 53.3933 190.91 54.52L198.67 58.47C200.679 59.228 202.419 60.5642 203.67 62.31 204.657 64.04 205.145 66.0095 205.08 68 205.08 74.14 201.577 77.21 194.57 77.21Z" fill="#172C51"/><path d="M240.14 0.69 226.55 0.69 225.69 12 240.14 12C243.708 12.0171 246.586 14.9232 246.569 18.491 246.568 18.594 246.565 18.6971 246.56 18.8 246.748 22.3628 244.012 25.4033 240.449 25.5911 240.346 25.5965 240.243 25.5995 240.14 25.6L224.65 25.6 222.54 53.54 234.62 36.93 240.14 36.93C250.15 37.1651 258.456 29.2409 258.691 19.2308 258.926 9.2206 251.002 0.915143 240.992 0.68 240.708 0.673334 240.424 0.673334 240.14 0.68Z" fill="#172C51"/></svg>