<svg width="196" height="32" viewBox="0 0 196 32" fill="none" xmlns="http://www.w3.org/2000/svg">
<path d="M0.442339 21.6262V0H13.1744C16.0782 0 18.322 0.629496 19.9059 1.88849C21.5101 3.12717 22.3122 4.9852 22.3122 7.46257C22.3122 9.85871 21.5101 11.6761 19.9059 12.9148C18.322 14.1535 16.0782 14.7728 13.1744 14.7728H6.53423V21.6262H0.442339ZM12.8698 4.508H6.53423V10.4171H12.8698C14.0679 10.4171 14.941 10.1938 15.4893 9.74703C16.0376 9.27998 16.3117 8.60987 16.3117 7.7367V7.37119C16.3117 6.39649 16.0376 5.67561 15.4893 5.20857C14.941 4.74152 14.0679 4.508 12.8698 4.508Z" fill="white"/>
<path d="M19.8531 21.6262L30.3921 0H36.8495L47.3884 21.6262H40.9006L38.5247 16.509H28.3208L25.9755 21.6262H19.8531ZM30.2702 12.3665H36.6363L33.4685 5.54362L30.2702 12.3665Z" fill="white"/>
<path d="M49.1061 21.6262V0H62.4473C65.3308 0 67.4934 0.619342 68.9352 1.85803C70.3972 3.0764 71.1283 4.85321 71.1283 7.18843C71.1283 8.87385 70.7221 10.275 69.9099 11.3918C69.1179 12.5087 67.9605 13.3412 66.4375 13.8895L71.3415 21.6262H64.3967L60.1933 14.6815H55.198V21.6262H49.1061ZM61.899 4.508H55.198V10.3258H61.899C63.9906 10.3258 65.0364 9.40182 65.0364 7.55395V7.24935C65.0364 5.42178 63.9906 4.508 61.899 4.508Z" fill="white"/>
<path d="M73.8841 21.6262V0H79.976V9.47289L89.8449 0H97.277L87.9869 8.89416L97.3684 21.6262H90.0581L83.6007 12.6102L79.976 16.0521V21.6262H73.8841Z" fill="white"/>
<path d="M104.417 21.6262L97.0152 0H103.625L108.285 15.9303L113.768 0H120.012L125.495 15.9303L130.155 0H136.46L129.059 21.6262H121.687L116.692 6.94476L111.697 21.6262H104.417Z" fill="white"/>
<path d="M138.254 21.6262V0H144.345V21.6262H138.254Z" fill="white"/>
<path d="M147.221 21.6262V17.7274L161.842 4.508H147.221V0H170.218V3.89881L155.597 17.1182H170.492V21.6262H147.221Z" fill="white"/>
<path d="M173.205 21.6262V0H193.308V4.508H179.296V8.52865H191.937V12.8539H179.296V17.1182H193.521V21.6262H173.205Z" fill="white"/>
<path d="M1.78182 31.8187L0 25.197H196L1.78182 31.8187Z" fill="white"/>
</svg>
